<svg id="_20-parking" height="512" viewBox="0 0 192 192" width="512" xmlns="http://www.w3.org/2000/svg" xmlns:xlink="http://www.w3.org/1999/xlink" data-name="20-parking"><linearGradient id="New_Gradient_Swatch_1" gradientUnits="userSpaceOnUse" x1="37.603" x2="154.397" y1="142.106" y2="25.313"><stop offset="0" stop-color="#34cdfa"/><stop offset="1" stop-color="#e8d9f1"/></linearGradient><path d="m96 0a80.091 80.091 0 0 0 -80 80c0 59.6 72.478 108.6 75.563 110.656a8 8 0 0 0 8.875 0c3.084-2.056 75.562-51.056 75.562-110.656a80.091 80.091 0 0 0 -80-80z" fill="url(#New_Gradient_Swatch_1)"/><circle cx="96" cy="80" fill="#e6f9fe" r="56"/><path d="m112 128a55.972 55.972 0 0 1 -32.6-101.487 55.994 55.994 0 1 0 49.2 98.974 55.83 55.83 0 0 1 -16.6 2.513z" fill="#ccf2fe"/><path d="m88 112h-16v-48a8 8 0 0 1 8-8h20a20 20 0 0 1 0 40h-12zm0-32h12a4 4 0 0 0 0-8h-12z" fill="#01c0f9"/></svg>